<?xml version="1.0" encoding="UTF-8" standalone="no"?>
<!-- Created with Inkscape (http://www.inkscape.org/) -->

<svg
   xmlns:dc="http://purl.org/dc/elements/1.1/"
   xmlns:cc="http://creativecommons.org/ns#"
   xmlns:rdf="http://www.w3.org/1999/02/22-rdf-syntax-ns#"
   xmlns:svg="http://www.w3.org/2000/svg"
   xmlns="http://www.w3.org/2000/svg"
   xmlns:xlink="http://www.w3.org/1999/xlink"
   xmlns:sodipodi="http://sodipodi.sourceforge.net/DTD/sodipodi-0.dtd"
   xmlns:inkscape="http://www.inkscape.org/namespaces/inkscape"
   width="210mm"
   height="103mm"
   viewBox="0 0 210 103"
   version="1.1"
   id="svg8"
   sodipodi:docname="ToyModels.svg"
   inkscape:version="0.92.3 (2405546, 2018-03-11)">
  <defs
     id="defs2">
    <linearGradient
       inkscape:collect="always"
       id="linearGradient5080">
      <stop
         style="stop-color:#173015;stop-opacity:1"
         offset="0"
         id="stop5076" />
      <stop
         style="stop-color:#2a8124;stop-opacity:1"
         offset="1"
         id="stop5078" />
    </linearGradient>
    <linearGradient
       inkscape:collect="always"
       id="linearGradient5029">
      <stop
         style="stop-color:#e60000;stop-opacity:1"
         offset="0"
         id="stop5025" />
      <stop
         id="stop5048"
         offset="0.125"
         style="stop-color:#fd8c19;stop-opacity:1" />
      <stop
         id="stop5044"
         offset="0.25"
         style="stop-color:#eeff10;stop-opacity:1" />
      <stop
         style="stop-color:#6af900;stop-opacity:1"
         offset="0.375"
         id="stop5046" />
      <stop
         id="stop5038"
         offset="0.5"
         style="stop-color:#00f9bd;stop-opacity:1" />
      <stop
         style="stop-color:#00e1f9;stop-opacity:1"
         offset="0.625"
         id="stop5042" />
      <stop
         style="stop-color:#1187ef;stop-opacity:1"
         offset="0.75"
         id="stop5040" />
      <stop
         id="stop5050"
         offset="0.875"
         style="stop-color:#4418f4;stop-opacity:1" />
      <stop
         style="stop-color:#6600d3;stop-opacity:1"
         offset="1"
         id="stop5027" />
    </linearGradient>
    <linearGradient
       inkscape:collect="always"
       xlink:href="#linearGradient5029"
       id="linearGradient5031"
       x1="162.73438"
       y1="452.98438"
       x2="451.3418"
       y2="452.98438"
       gradientUnits="userSpaceOnUse" />
    <filter
       inkscape:collect="always"
       style="color-interpolation-filters:sRGB"
       id="filter5060"
       x="-0.017768741"
       width="1.0355375"
       y="-0.05251975"
       height="1.1050395">
      <feGaussianBlur
         inkscape:collect="always"
         stdDeviation="1.5928359"
         id="feGaussianBlur5062" />
    </filter>
    <linearGradient
       inkscape:collect="always"
       xlink:href="#linearGradient5080"
       id="linearGradient5082"
       x1="107.51729"
       y1="713.54196"
       x2="436.82054"
       y2="713.54196"
       gradientUnits="userSpaceOnUse" />
  </defs>
  <sodipodi:namedview
     id="base"
     pagecolor="#ffffff"
     bordercolor="#666666"
     borderopacity="1.0"
     inkscape:pageopacity="0.0"
     inkscape:pageshadow="2"
     inkscape:zoom="0.70710678"
     inkscape:cx="404.53571"
     inkscape:cy="239.32132"
     inkscape:document-units="mm"
     inkscape:current-layer="g5066"
     showgrid="false"
     showguides="true"
     inkscape:guide-bbox="true"
     inkscape:window-width="1920"
     inkscape:window-height="1017"
     inkscape:window-x="1912"
     inkscape:window-y="-8"
     inkscape:window-maximized="1" />
  <metadata
     id="metadata5">
    <rdf:RDF>
      <cc:Work
         rdf:about="">
        <dc:format>image/svg+xml</dc:format>
        <dc:type
           rdf:resource="http://purl.org/dc/dcmitype/StillImage" />
        <dc:title></dc:title>
      </cc:Work>
    </rdf:RDF>
  </metadata>
  <g
     inkscape:label="Ebene 1"
     inkscape:groupmode="layer"
     id="layer1"
     transform="translate(0,-194)">
    <g
       aria-label="Toy Models GmbH"
       transform="matrix(0.36713928,0,0,0.43400874,1.7188637,-52.871747)"
       style="font-style:normal;font-weight:normal;font-size:40px;line-height:125%;font-family:sans-serif;letter-spacing:0px;word-spacing:0px;fill:#000000;fill-opacity:1;stroke:none;stroke-width:1px;stroke-linecap:butt;stroke-linejoin:miter;stroke-opacity:1"
       id="flowRoot10">
      <g
         id="g5066"
         transform="matrix(1.6143338,0,0,1.5435955,-158.51255,-413.336)">
        <path
           inkscape:connector-curvature="0"
           id="path60"
           d="m 139.75,361.5957 c -10.13884,0.81328 -20.40673,0.10067 -30.5957,0.33985 0.83524,5.34952 -1.81325,11.50598 1.72461,16.28515 2.70113,-0.90834 8.33019,-1.08833 6.06445,3.32227 0,11.73893 0,23.47786 0,35.2168 9.93448,-0.46419 19.78791,0.48144 29.66406,0.44335 2.17783,-0.2589 4.35292,-0.83307 6.25391,-1.95312 0.16107,2.889 2.71121,6.51453 -1.06055,7.41797 -2.22943,2.45455 -1.48519,6.36681 -1.23047,9.31836 2.85386,4.07292 8.81862,1.54096 12.91407,2.17969 6.00447,-0.13442 11.76041,-4.73 11.5238,-11.12178 2.21717,-12.59167 2.68633,-25.39927 4.5426,-37.9583 -13.72935,0.36784 -27.39944,-0.63785 -40.95312,0.32812 -2.98964,1.91645 -2.60287,-8.33436 0.0352,-7.17773 4.12022,0.68141 8.13803,-3.26718 6.18555,-7.35938 0.49293,-3.87244 0.40717,-9.64561 -5.06836,-9.28125 z m 41.92188,2.16602 c -10e-6,17.66081 0,35.32161 0,52.98242 5.18828,-0.4898 10.93602,0.38468 15.83593,-0.67383 3.29367,1.2364 7.33055,0.68867 10.41407,-0.10742 3.87529,1.45287 8.24216,0.38861 12.24609,0.75195 2.68357,-2.48329 6.22636,0.64594 9.59961,0.0625 3.78397,0.33585 7.77646,-0.86441 11.13476,-1.87304 3.43237,2.99515 8.37346,2.42325 12.31641,1.59375 6.08691,1.08157 11.50341,-0.78745 17.13867,0.66015 4.04385,0.86616 8.49396,-0.48054 12.10547,-1.07422 4.3169,2.2601 9.42057,-0.70501 13.9043,1.20704 -0.97511,-2.94802 3.99225,0.4237 5.66992,-0.1504 6.99647,0.42702 16.38095,0.87919 20.82617,-5.65039 2.70203,-3.77083 0.50514,-9.37793 -1.52344,-11.88671 3.80125,-3.17649 1.44579,-10.07169 -2.86914,-11.90625 -7.03203,-3.10361 -15.35501,-3.03733 -22.73242,-1.19727 0.99467,-3.54227 0.35874,-10.03187 -4.82617,-8.90234 -3.67695,-0.68754 -11.47956,-0.9936 -10.15234,4.92968 -0.13616,1.73388 0.61779,3.66262 -1.78125,2.2461 -3.81888,-1.00304 -7.89915,-0.99225 -11.71875,0 1.41319,-3.8214 -1.29123,-8.96956 -5.83008,-7.30078 -3.64944,-0.0753 -11.48406,-1.42168 -11.08399,4.60351 0.46087,2.16804 -4.0813,-0.0688 -5.64062,1.25977 -2.9345,-0.029 -4.35369,4.36208 -7.13281,2.30664 -4.74377,-1.405 -9.95802,-1.44252 -14.63672,0.24023 0,-8.04036 0,-16.08073 0,-24.12109 -13.75456,0 -27.50912,0 -41.26367,0 v 1 z m 124.63476,30.51172 c 2.78356,2.07508 -4.19993,1.74406 -0.71484,0.0293 l 0.3789,-0.0547 z m 0.004,12.37109 c 1.35497,1.97899 -3.07049,0.81679 -0.20117,-0.01 z"
           style="font-style:normal;font-variant:normal;font-weight:normal;font-stretch:condensed;font-size:40px;font-family:Impact;-inkscape-font-specification:'Impact, Condensed';font-variant-ligatures:normal;font-variant-caps:normal;font-variant-numeric:normal;font-feature-settings:normal;text-align:start;writing-mode:lr-tb;text-anchor:start;fill:#8c8c8c;fill-opacity:1;stroke-width:1.5654788px;filter:url(#filter5060)"
           transform="matrix(1.5832766,0,0,1.893309,-70.751277,-39.944349)" />
        <path
           id="path18"
           d="m 222.3356,651.07928 v 91.6088 h 15.4192 v -60.43156 l 6.49616,60.43156 h 10.93541 l 6.15964,-61.84502 v 61.84502 h 15.42144 v -8.10429 c 0.6183,1.61797 1.50998,3.04344 2.71211,4.24939 1.43509,1.38847 3.43482,2.43653 6.00144,3.14253 2.56662,0.68245 5.69959,1.02346 9.39771,1.02346 3.31175,0 6.23692,-0.40142 8.77595,-1.20156 2.5666,-0.82364 4.66285,-2.08158 6.29113,-3.77598 0.70852,-0.74752 1.29079,-1.52085 1.78506,-2.31293 0.10395,0.7215 0.22125,1.37781 0.37217,1.89588 0.51036,1.66435 1.64669,3.13596 3.40742,4.41621 1.76072,1.25466 3.8412,1.88236 6.23988,1.88236 1.78625,0 3.4947,-0.38379 5.12785,-1.15195 1.63314,-0.76815 3.19096,-1.9218 4.671,-3.45813 v 3.68806 h 15.46376 v -3.97887 c 0.0142,0.0156 0.0258,0.0317 0.0402,0.0473 1.49491,1.57777 3.57401,2.82328 6.23766,3.73541 2.66364,0.91214 5.73367,1.36838 9.21273,1.36838 3.5878,0 6.56506,-0.45624 8.92973,-1.36838 2.39184,-0.93679 4.363,-2.33056 5.91229,-4.1795 0.83654,-0.99836 1.49081,-1.96088 1.99452,-2.89454 v 7.30399 h 12.86308 v -9.06688 c 0.35072,1.58354 0.89402,2.89713 1.64242,3.92252 1.40845,1.92973 3.98413,3.45795 7.72855,4.58754 3.77876,1.12959 8.3127,1.69525 13.60295,1.69525 4.77495,0 8.8458,-0.51778 12.21234,-1.55322 3.40087,-1.05901 5.82222,-2.55412 7.26501,-4.48385 1.44279,-1.95326 2.16613,-4.83519 2.16613,-8.64757 0,-3.41232 -0.94532,-6.01368 -2.83469,-7.8022 -1.88938,-1.78853 -5.85658,-3.69536 -11.90258,-5.71921 -4.53451,-1.52967 -7.54172,-2.69407 -9.01887,-3.49419 -1.44279,-0.80014 -2.31825,-1.53001 -2.62743,-2.18895 -0.27481,-0.68245 -0.41228,-1.74081 -0.41228,-3.17634 0,-1.059 0.29181,-1.84706 0.87582,-2.36478 0.58399,-0.54127 1.45946,-0.81156 2.62743,-0.81156 1.44281,0 2.33742,0.29312 2.68092,0.88145 0.37789,0.56479 0.56605,1.93104 0.56605,4.09609 v 2.54063 h 18.44778 v -2.71872 c 0,-2.35333 -0.19039,-4.08113 -0.56828,-5.18719 -0.34353,-1.10607 -1.37336,-2.30808 -3.09097,-3.60241 -1.68326,-1.29432 -4.12149,-2.32984 -7.31626,-3.10644 -3.16043,-0.80015 -7.0093,-1.19931 -11.54379,-1.19931 -4.56888,0 -8.58678,0.48242 -12.05635,1.44728 -3.43523,0.96487 -5.8757,2.3414 -7.31849,4.12992 -0.44814,0.54822 -0.81646,1.20428 -1.12541,1.94322 v -22.29748 h -12.86308 v 21.77673 c -0.0802,-0.19511 -0.15659,-0.3972 -0.24291,-0.58162 -1.19592,-2.63782 -3.30086,-4.74561 -6.31788,-6.32336 -2.98982,-1.60241 -6.79614,-2.40311 -11.41676,-2.40311 -3.77805,1e-5 -7.12011,0.66609 -10.02838,1.99733 -1.73103,0.77769 -3.16784,1.76977 -4.32112,2.96669 v -17.47324 h -15.46376 v 14.44117 c -1.30143,-1.38267 -2.75586,-2.41961 -4.36347,-3.11096 -1.58211,-0.69135 -3.32988,-1.03699 -5.24372,-1.03699 -2.47524,0 -4.60742,0.62771 -6.39366,1.88236 -1.78625,1.22906 -2.93495,2.66251 -3.44531,4.30124 -0.28417,0.96048 -0.47295,2.3618 -0.59056,4.10513 -0.42003,-0.59422 -0.88662,-1.18449 -1.44186,-1.76514 -1.46268,-1.52966 -3.54641,-2.76476 -6.25103,-3.7061 -2.67698,-0.96485 -5.89175,-1.44727 -9.64507,-1.44728 -4.47088,0 -8.14098,0.74242 -11.01117,2.22502 -2.87019,1.48259 -4.8574,3.44757 -5.96131,5.89504 -0.1572,0.34852 -0.29976,0.71971 -0.43457,1.10688 v -52.60906 h -23.00511 l -4.0225,42.77797 -2.43133,-23.31418 c -0.75425,-7.46908 -1.46671,-13.9563 -2.13716,-19.46379 z m -114.81831,0.32687 v 18.33213 h 12.33268 v 73.27667 h 20.85013 v -5.49152 c 0.47202,0.87842 1.03971,1.68492 1.70483,2.41438 1.32831,1.40496 3.18011,2.46418 5.55572,3.17858 2.37563,0.69057 5.275,1.03699 8.69794,1.03699 3.06533,0 5.77293,-0.40544 8.12301,-1.21508 2.37562,-0.83345 4.31603,-2.10653 5.82314,-3.82107 1.50712,-1.73836 2.49078,-3.5962 2.95057,-5.57268 0.27088,-1.17844 0.45253,-2.79751 0.56382,-4.76113 l 3.96456,25.70827 c 0.68919,4.37717 1.03404,6.84958 1.03404,7.41896 0,1.17439 -0.37218,1.9413 -1.1165,2.29716 -0.74434,0.32027 -2.41167,0.48018 -5.00305,0.48018 v 11.31667 h 10.13089 c 4.63143,0 7.99339,-0.46341 10.08856,-1.38865 2.12272,-0.88967 3.77751,-2.29614 4.96294,-4.21784 1.18541,-1.92167 2.02648,-4.35928 2.5227,-7.31301 0.5238,-2.9537 1.15882,-8.48702 1.90316,-16.60081 l 4.79579,-51.24521 h -15.17628 l -2.64527,47.77581 -5.4599,-47.77581 h -15.17629 l 0.59725,3.86616 c -1.22259,-1.0299 -2.75745,-1.89712 -4.6086,-2.60147 -2.4778,-0.97634 -5.45345,-1.46531 -8.92749,-1.46532 -4.13819,10e-6 -7.53446,0.74959 -10.19106,2.24981 -2.33861,1.32065 -4.04275,3.02205 -5.11448,5.09927 v -32.64931 h 12.38171 v -18.33213 z m 221.65849,48.71135 c 0.94418,0 1.56799,0.32021 1.8742,0.96034 0.33174,0.64013 0.49919,1.89553 0.49919,3.76472 V 728.425 c 0,2.84217 -0.16745,4.63398 -0.49919,5.37654 -0.33173,0.71695 -0.99489,1.07531 -1.99008,1.07531 -0.86762,0 -1.45433,-0.32021 -1.76054,-0.96033 -0.30621,-0.66575 -0.45908,-2.03561 -0.45908,-4.10963 v -24.96433 c 0,-1.99722 0.15287,-3.27806 0.45908,-3.84137 0.33174,-0.58893 0.95779,-0.88369 1.87642,-0.88369 z m 32.96219,1.8801 c 0.92412,0 1.53508,0.36956 1.83407,1.10912 0.29898,0.73958 0.44794,2.37972 0.44794,4.91893 v 3.58662 h -4.81139 v -3.58662 c 0,-2.76108 0.13601,-4.4514 0.40782,-5.06771 0.27179,-0.64096 0.97999,-0.96034 2.12156,-0.96034 z m -67.38406,0.7597 c 0.99352,0 1.64192,0.31819 1.94551,0.95359 0.30357,0.61185 0.45685,2.11726 0.45685,4.51765 v 21.60315 c 0,2.02384 -0.16579,3.34219 -0.49697,3.95408 -0.30359,0.61186 -0.95198,0.9175 -1.9455,0.9175 -0.96594,0 -1.61657,-0.32844 -1.94774,-0.98739 -0.33118,-0.68246 -0.49473,-2.12971 -0.49473,-4.34182 v -21.14552 c 0,-2.40039 0.16355,-3.9058 0.49473,-4.51765 0.33117,-0.6354 0.99432,-0.95358 1.98785,-0.95359 z m -138.2112,0.6763 c 0.91961,0 1.51968,0.31964 1.80066,0.9626 0.281,0.61913 0.42119,2.14509 0.42119,4.57401 v 21.86014 c 0,2.04792 -0.15254,3.38002 -0.45908,3.99916 -0.28097,0.61914 -0.88105,0.92878 -1.80065,0.92878 -0.89406,0 -1.49412,-0.33189 -1.80066,-0.99866 -0.30652,-0.69057 -0.46129,-2.15525 -0.46129,-4.39367 v -21.39575 c 0,-2.42892 0.15477,-3.95488 0.46129,-4.57401 0.30654,-0.64296 0.91895,-0.9626 1.83854,-0.9626 z m 235.66035,11.13634 c 0.27236,0.60468 0.59133,1.18353 0.97164,1.73132 1.33973,1.90618 5.06802,4.03542 11.18276,6.38875 7.28269,2.77693 11.31752,4.4488 12.10761,5.0136 0.75575,0.56478 1.13432,1.96413 1.13432,4.1998 0,1.62378 -0.29184,2.69467 -0.87581,3.2124 -0.58399,0.49421 -1.61381,0.74167 -3.09097,0.74167 -1.3741,0 -2.30249,-0.37635 -2.78343,-1.12941 -0.44657,-0.75307 -0.67079,-2.38959 -0.67079,-4.90766 v -2.96443 h -17.97533 z m -32.59447,5.02939 h 19.7314 v 3.18084 h -14.02191 v 6.4699 c 0,2.44059 -0.21807,4.09216 -0.65295,4.955 -0.40771,0.83818 -1.23675,1.2579 -2.48705,1.2579 -1.00566,0 -1.68575,-0.32163 -2.0391,-0.96258 -0.35335,-0.64098 -0.5304,-2.06901 -0.53039,-4.28773 z"
           style="font-style:normal;font-variant:normal;font-weight:normal;font-stretch:condensed;font-size:40px;font-family:Impact;-inkscape-font-specification:'Impact, Condensed';font-variant-ligatures:normal;font-variant-caps:normal;font-variant-numeric:normal;font-feature-settings:normal;text-align:start;writing-mode:lr-tb;text-anchor:start;fill:url(#linearGradient5082);fill-opacity:1;stroke-width:2.71041846px"
           inkscape:connector-curvature="0" />
      </g>
    </g>
  </g>
</svg>
